{
  "accessors": [
    {
      "bufferView": 2,
      "componentType": 5126,
      "count": 712,
      "max": [
        0.40617454051971436,
        0.2522435486316681,
        0.2522435188293457
      ],
      "min": [
        -0.40617454051971436,
        -0.2522435486316681,
        -0.2522435188293457
      ],
      "type": "VEC3"
    },
    {
      "bufferView": 2,
      "byteOffset": 8544,
      "componentType": 5126,
      "count": 712,
      "max": [
        1.0,
        1.0,
        1.0
      ],
      "min": [
        -1.0,
        -1.0,
        -1.0
      ],
      "type": "VEC3"
    },
    {
      "bufferView": 3,
      "componentType": 5126,
      "count": 712,
      "max": [
        1.0,
        1.0,
        1.0,
        1.0
      ],
      "min": [
        -0.9999938011169434,
        -1.0,
        -1.0,
        1.0
      ],
      "type": "VEC4"
    },
    {
      "bufferView": 1,
      "componentType": 5126,
      "count": 712,
      "max": [
        0.5114640593528748,
        0.995629072189331
      ],
      "min": [
        0.19154849648475647,
        0.0029933787882328033
      ],
      "type": "VEC2"
    },
    {
      "bufferView": 1,
      "byteOffset": 5696,
      "componentType": 5126,
      "count": 712,
      "max": [
        0.5114640593528748,
        0.995629072189331
      ],
      "min": [
        0.19154849648475647,
        0.0029933787882328033
      ],
      "type": "VEC2"
    },
    {
      "bufferView": 1,
      "byteOffset": 11392,
      "componentType": 5126,
      "count": 712,
      "max": [
        0.5114640593528748,
        0.995629072189331
      ],
      "min": [
        0.19154849648475647,
        0.0029933787882328033
      ],
      "type": "VEC2"
    },
    {
      "bufferView": 1,
      "byteOffset": 17088,
      "componentType": 5126,
      "count": 712,
      "max": [
        0.5114640593528748,
        0.995629072189331
      ],
      "min": [
        0.19154849648475647,
        0.0029933787882328033
      ],
      "type": "VEC2"
    },
    {
      "bufferView": 0,
      "componentType": 5125,
      "count": 2136,
      "type": "SCALAR"
    },
    {
      "bufferView": 2,
      "byteOffset": 17088,
      "componentType": 5126,
      "count": 342,
      "max": [
        0.052245866507291794,
        0.060015060007572174,
        0.06659408658742905
      ],
      "min": [
        0.03117677941918373,
        -0.0680578351020813,
        -0.06659407168626785
      ],
      "type": "VEC3"
    },
    {
      "bufferView": 2,
      "byteOffset": 21192,
      "componentType": 5126,
      "count": 342,
      "max": [
        1.0,
        1.0,
        1.0
      ],
      "min": [
        -1.0,
        -1.0,
        -1.0
      ],
      "type": "VEC3"
    },
    {
      "bufferView": 3,
      "byteOffset": 11392,
      "componentType": 5126,
      "count": 342,
      "max": [
        1.0,
        0.8622545003890991,
        0.9369800686836243,
        1.0
      ],
      "min": [
        -1.0,
        -0.40595555305480957,
        -0.8097450733184814,
        -1.0
      ],
      "type": "VEC4"
    },
    {
      "bufferView": 1,
      "byteOffset": 22784,
      "componentType": 5126,
      "count": 342,
      "max": [
        0.6362723708152771,
        0.9967355728149414
      ],
      "min": [
        0.0,
        0.0
      ],
      "type": "VEC2"
    },
    {
      "bufferView": 1,
      "byteOffset": 25520,
      "componentType": 5126,
      "count": 342,
      "max": [
        0.6362723708152771,
        0.9967355728149414
      ],
      "min": [
        0.0,
        0.0
      ],
      "type": "VEC2"
    },
    {
      "bufferView": 1,
      "byteOffset": 28256,
      "componentType": 5126,
      "count": 342,
      "max": [
        0.6362723708152771,
        0.9967355728149414
      ],
      "min": [
        0.0,
        0.0
      ],
      "type": "VEC2"
    },
    {
      "bufferView": 1,
      "byteOffset": 30992,
      "componentType": 5126,
      "count": 342,
      "max": [
        0.6362723708152771,
        0.9967355728149414
      ],
      "min": [
        0.0,
        0.0
      ],
      "type": "VEC2"
    },
    {
      "bufferView": 0,
      "byteOffset": 8544,
      "componentType": 5125,
      "count": 828,
      "type": "SCALAR"
    },
    {
      "bufferView": 2,
      "byteOffset": 25296,
      "componentType": 5126,
      "count": 182,
      "max": [
        -0.4410408139228821,
        0.3910718262195587,
        -0.3866163492202759
      ],
      "min": [
        -0.8857887387275696,
        -0.007165893912315369,
        -0.5289366841316223
      ],
      "type": "VEC3"
    },
    {
      "bufferView": 2,
      "byteOffset": 27480,
      "componentType": 5126,
      "count": 182,
      "max": [
        0.9747129082679749,
        0.9872608780860901,
        1.0
      ],
      "min": [
        -0.9945155382156372,
        -0.3005288243293762,
        -1.0
      ],
      "type": "VEC3"
    },
    {
      "bufferView": 3,
      "byteOffset": 16864,
      "componentType": 5126,
      "count": 182,
      "max": [
        7.239761089294916e-06,
        0.6318905353546143,
        1.0,
        1.0
      ],
      "min": [
        -0.7750731706619263,
        -1.1704898497555405e-05,
        -6.705554937980196e-07,
        1.0
      ],
      "type": "VEC4"
    },
    {
      "bufferView": 1,
      "byteOffset": 33728,
      "componentType": 5126,
      "count": 182,
      "max": [
        0.4703453779220581,
        0.8659135103225708
      ],
      "min": [
        0.3503401279449463,
        0.5435246229171753
      ],
      "type": "VEC2"
    },
    {
      "bufferView": 1,
      "byteOffset": 35184,
      "componentType": 5126,
      "count": 182,
      "max": [
        0.4703453779220581,
        0.8659135103225708
      ],
      "min": [
        0.3503401279449463,
        0.5435246229171753
      ],
      "type": "VEC2"
    },
    {
      "bufferView": 1,
      "byteOffset": 36640,
      "componentType": 5126,
      "count": 182,
      "max": [
        0.4703453779220581,
        0.8659135103225708
      ],
      "min": [
        0.3503401279449463,
        0.5435246229171753
      ],
      "type": "VEC2"
    },
    {
      "bufferView": 1,
      "byteOffset": 38096,
      "componentType": 5126,
      "count": 182,
      "max": [
        0.4703453779220581,
        0.8659135103225708
      ],
      "min": [
        0.3503401279449463,
        0.5435246229171753
      ],
      "type": "VEC2"
    },
    {
      "bufferView": 0,
      "byteOffset": 11856,
      "componentType": 5125,
      "count": 660,
      "type": "SCALAR"
    },
    {
      "bufferView": 2,
      "byteOffset": 29664,
      "componentType": 5126,
      "count": 1810,
      "max": [
        0.5046707987785339,
        0.3479980528354645,
        -0.20826874673366547
      ],
      "min": [
        -1.5732853412628174,
        -0.9351760149002075,
        -0.7076498866081238
      ],
      "type": "VEC3"
    },
    {
      "bufferView": 2,
      "byteOffset": 51384,
      "componentType": 5126,
      "count": 1810,
      "max": [
        0.9999989867210388,
        1.0,
        0.9999999403953552
      ],
      "min": [
        -1.0,
        -0.9999998807907104,
        -0.9999982118606567
      ],
      "type": "VEC3"
    },
    {
      "bufferView": 3,
      "byteOffset": 19776,
      "componentType": 5126,
      "count": 1810,
      "max": [
        0.9928948283195496,
        0.999963104724884,
        1.0,
        1.0
      ],
      "min": [
        -0.9999921917915344,
        -0.557630717754364,
        -1.0,
        1.0
      ],
      "type": "VEC4"
    },
    {
      "bufferView": 1,
      "byteOffset": 39552,
      "componentType": 5126,
      "count": 1810,
      "max": [
        0.9940732717514038,
        1.001421332359314
      ],
      "min": [
        0.007322164252400398,
        0.002935785800218582
      ],
      "type": "VEC2"
    },
    {
      "bufferView": 1,
      "byteOffset": 54032,
      "componentType": 5126,
      "count": 1810,
      "max": [
        0.9940732717514038,
        1.001421332359314
      ],
      "min": [
        0.007322164252400398,
        0.002935785800218582
      ],
      "type": "VEC2"
    },
    {
      "bufferView": 1,
      "byteOffset": 68512,
      "componentType": 5126,
      "count": 1810,
      "max": [
        0.9940732717514038,
        1.001421332359314
      ],
      "min": [
        0.007322164252400398,
        0.002935785800218582
      ],
      "type": "VEC2"
    },
    {
      "bufferView": 1,
      "byteOffset": 82992,
      "componentType": 5126,
      "count": 1810,
      "max": [
        0.9940732717514038,
        1.001421332359314
      ],
      "min": [
        0.007322164252400398,
        0.002935785800218582
      ],
      "type": "VEC2"
    },
    {
      "bufferView": 0,
      "byteOffset": 14496,
      "componentType": 5125,
      "count": 8064,
      "type": "SCALAR"
    },
    {
      "bufferView": 2,
      "byteOffset": 73104,
      "componentType": 5126,
      "count": 4280,
      "max": [
        2.0302693843841553,
        0.04955904558300972,
        0.07168088853359222
      ],
      "min": [
        0.8672107458114624,
        -0.0497022420167923,
        -0.07168091088533401
      ],
      "type": "VEC3"
    },
    {
      "bufferView": 2,
      "byteOffset": 124464,
      "componentType": 5126,
      "count": 4280,
      "max": [
        1.0,
        1.0,
        1.0
      ],
      "min": [
        -1.0,
        -1.0,
        -1.0
      ],
      "type": "VEC3"
    },
    {
      "bufferView": 3,
      "byteOffset": 48736,
      "componentType": 5126,
      "count": 4280,
      "max": [
        0.7070856690406799,
        1.0,
        1.0,
        1.0
      ],
      "min": [
        -0.9998672604560852,
        -0.9999980330467224,
        -1.0,
        1.0
      ],
      "type": "VEC4"
    },
    {
      "bufferView": 1,
      "byteOffset": 97472,
      "componentType": 5126,
      "count": 4280,
      "max": [
        0.9964640140533447,
        0.9936912655830383
      ],
      "min": [
        0.4768165051937103,
        0.518761157989502
      ],
      "type": "VEC2"
    },
    {
      "bufferView": 1,
      "byteOffset": 131712,
      "componentType": 5126,
      "count": 4280,
      "max": [
        0.9964640140533447,
        0.9936912655830383
      ],
      "min": [
        0.4768165051937103,
        0.518761157989502
      ],
      "type": "VEC2"
    },
    {
      "bufferView": 1,
      "byteOffset": 165952,
      "componentType": 5126,
      "count": 4280,
      "max": [
        0.9964640140533447,
        0.9936912655830383
      ],
      "min": [
        0.4768165051937103,
        0.518761157989502
      ],
      "type": "VEC2"
    },
    {
      "bufferView": 1,
      "byteOffset": 200192,
      "componentType": 5126,
      "count": 4280,
      "max": [
        0.9964640140533447,
        0.9936912655830383
      ],
      "min": [
        0.4768165051937103,
        0.518761157989502
      ],
      "type": "VEC2"
    },
    {
      "bufferView": 0,
      "byteOffset": 46752,
      "componentType": 5125,
      "count": 13278,
      "type": "SCALAR"
    },
    {
      "bufferView": 2,
      "byteOffset": 175824,
      "componentType": 5126,
      "count": 446,
      "max": [
        0.5085616707801819,
        -0.0645272508263588,
        -0.3755653202533722
      ],
      "min": [
        -0.4537389874458313,
        -0.663087010383606,
        -0.5412753820419312
      ],
      "type": "VEC3"
    },
    {
      "bufferView": 2,
      "byteOffset": 181176,
      "componentType": 5126,
      "count": 446,
      "max": [
        1.0,
        1.0,
        1.0
      ],
      "min": [
        -0.9803957343101501,
        -1.0,
        -1.0
      ],
      "type": "VEC3"
    },
    {
      "bufferView": 3,
      "byteOffset": 117216,
      "componentType": 5126,
      "count": 446,
      "max": [
        0.9999997019767761,
        0.999997079372406,
        1.0,
        1.0
      ],
      "min": [
        -0.9999997019767761,
        -0.9999967217445374,
        -1.0,
        1.0
      ],
      "type": "VEC4"
    },
    {
      "bufferView": 1,
      "byteOffset": 234432,
      "componentType": 5126,
      "count": 446,
      "max": [
        0.18423277139663696,
        0.5001851916313171
      ],
      "min": [
        0.004008946008980274,
        0.002543652430176735
      ],
      "type": "VEC2"
    },
    {
      "bufferView": 1,
      "byteOffset": 238000,
      "componentType": 5126,
      "count": 446,
      "max": [
        0.18423277139663696,
        0.5001851916313171
      ],
      "min": [
        0.004008946008980274,
        0.002543652430176735
      ],
      "type": "VEC2"
    },
    {
      "bufferView": 1,
      "byteOffset": 241568,
      "componentType": 5126,
      "count": 446,
      "max": [
        0.18423277139663696,
        0.5001851916313171
      ],
      "min": [
        0.004008946008980274,
        0.002543652430176735
      ],
      "type": "VEC2"
    },
    {
      "bufferView": 1,
      "byteOffset": 245136,
      "componentType": 5126,
      "count": 446,
      "max": [
        0.18423277139663696,
        0.5001851916313171
      ],
      "min": [
        0.004008946008980274,
        0.002543652430176735
      ],
      "type": "VEC2"
    },
    {
      "bufferView": 0,
      "byteOffset": 99864,
      "componentType": 5125,
      "count": 1698,
      "type": "SCALAR"
    },
    {
      "bufferView": 2,
      "byteOffset": 186528,
      "componentType": 5126,
      "count": 80,
      "max": [
        0.1790485978126526,
        -0.36995962262153625,
        -0.41872721910476685
      ],
      "min": [
        0.0579831600189209,
        -0.4417610466480255,
        -0.4981135129928589
      ],
      "type": "VEC3"
    },
    {
      "bufferView": 2,
      "byteOffset": 187488,
      "componentType": 5126,
      "count": 80,
      "max": [
        0.9691395163536072,
        1.8665821244212566e-06,
        1.0
      ],
      "min": [
        -0.960236132144928,
        -1.0,
        -1.0
      ],
      "type": "VEC3"
    },
    {
      "bufferView": 3,
      "byteOffset": 124352,
      "componentType": 5126,
      "count": 80,
      "max": [
        0.9999999403953552,
        0.9691393375396729,
        0.01463889516890049,
        1.0
      ],
      "min": [
        0.24651317298412323,
        -0.9602360129356384,
        -0.013490445911884308,
        1.0
      ],
      "type": "VEC4"
    },
    {
      "bufferView": 1,
      "byteOffset": 248704,
      "componentType": 5126,
      "count": 80,
      "max": [
        0.08851572126150131,
        0.6011971235275269
      ],
      "min": [
        0.005973301827907562,
        0.5121482014656067
      ],
      "type": "VEC2"
    },
    {
      "bufferView": 1,
      "byteOffset": 249344,
      "componentType": 5126,
      "count": 80,
      "max": [
        0.08851572126150131,
        0.6011971235275269
      ],
      "min": [
        0.005973301827907562,
        0.5121482014656067
      ],
      "type": "VEC2"
    },
    {
      "bufferView": 1,
      "byteOffset": 249984,
      "componentType": 5126,
      "count": 80,
      "max": [
        0.08851572126150131,
        0.6011971235275269
      ],
      "min": [
        0.005973301827907562,
        0.5121482014656067
      ],
      "type": "VEC2"
    },
    {
      "bufferView": 1,
      "byteOffset": 250624,
      "componentType": 5126,
      "count": 80,
      "max": [
        0.08851572126150131,
        0.6011971235275269
      ],
      "min": [
        0.005973301827907562,
        0.5121482014656067
      ],
      "type": "VEC2"
    },
    {
      "bufferView": 0,
      "byteOffset": 106656,
      "componentType": 5125,
      "count": 264,
      "type": "SCALAR"
    }
  ],
  "asset": {
    "extras": {
      "author": "ParacosmicDrive (https://sketchfab.com/ParacosmicDrive)",
      "license": "CC-BY-4.0 (http://creativecommons.org/licenses/by/4.0/)",
      "source": "https://sketchfab.com/3d-models/palm-pistol-5d6259c4a8e143b098508f1590da3a28",
      "title": "Palm Pistol"
    },
    "generator": "Sketchfab-13.11.0",
    "version": "2.0"
  },
  "bufferViews": [
    {
      "buffer": 0,
      "byteLength": 107712,
      "name": "floatBufferViews",
      "target": 34963
    },
    {
      "buffer": 0,
      "byteLength": 251264,
      "byteOffset": 107712,
      "byteStride": 8,
      "name": "floatBufferViews",
      "target": 34962
    },
    {
      "buffer": 0,
      "byteLength": 188448,
      "byteOffset": 358976,
      "byteStride": 12,
      "name": "floatBufferViews",
      "target": 34962
    },
    {
      "buffer": 0,
      "byteLength": 125632,
      "byteOffset": 547424,
      "byteStride": 16,
      "name": "floatBufferViews",
      "target": 34962
    }
  ],
  "buffers": [
    {
      "byteLength": 673056,
      "uri": "scene.bin"
    }
  ],
  "images": [
    {
      "uri": "textures/PalmPistol_baseColor.png"
    },
    {
      "uri": "textures/PalmPistol_metallicRoughness.png"
    },
    {
      "uri": "textures/PalmPistol_normal.png"
    }
  ],
  "materials": [
    {
      "doubleSided": true,
      "name": "PalmPistol",
      "normalTexture": {
        "index": 2
      },
      "pbrMetallicRoughness": {
        "baseColorTexture": {
          "index": 0
        },
        "metallicFactor": 0.9183760820727763,
        "metallicRoughnessTexture": {
          "index": 1
        }
      }
    }
  ],
  "meshes": [
    {
      "name": "Object_0",
      "primitives": [
        {
          "attributes": {
            "NORMAL": 1,
            "POSITION": 0,
            "TANGENT": 2,
            "TEXCOORD_0": 3,
            "TEXCOORD_1": 4,
            "TEXCOORD_2": 5,
            "TEXCOORD_3": 6
          },
          "indices": 7,
          "material": 0,
          "mode": 4
        }
      ]
    },
    {
      "name": "Object_1",
      "primitives": [
        {
          "attributes": {
            "NORMAL": 9,
            "POSITION": 8,
            "TANGENT": 10,
            "TEXCOORD_0": 11,
            "TEXCOORD_1": 12,
            "TEXCOORD_2": 13,
            "TEXCOORD_3": 14
          },
          "indices": 15,
          "material": 0,
          "mode": 4
        }
      ]
    },
    {
      "name": "Object_2",
      "primitives": [
        {
          "attributes": {
            "NORMAL": 17,
            "POSITION": 16,
            "TANGENT": 18,
            "TEXCOORD_0": 19,
            "TEXCOORD_1": 20,
            "TEXCOORD_2": 21,
            "TEXCOORD_3": 22
          },
          "indices": 23,
          "material": 0,
          "mode": 4
        }
      ]
    },
    {
      "name": "Object_3",
      "primitives": [
        {
          "attributes": {
            "NORMAL": 25,
            "POSITION": 24,
            "TANGENT": 26,
            "TEXCOORD_0": 27,
            "TEXCOORD_1": 28,
            "TEXCOORD_2": 29,
            "TEXCOORD_3": 30
          },
          "indices": 31,
          "material": 0,
          "mode": 4
        }
      ]
    },
    {
      "name": "Object_4",
      "primitives": [
        {
          "attributes": {
            "NORMAL": 33,
            "POSITION": 32,
            "TANGENT": 34,
            "TEXCOORD_0": 35,
            "TEXCOORD_1": 36,
            "TEXCOORD_2": 37,
            "TEXCOORD_3": 38
          },
          "indices": 39,
          "material": 0,
          "mode": 4
        }
      ]
    },
    {
      "name": "Object_5",
      "primitives": [
        {
          "attributes": {
            "NORMAL": 41,
            "POSITION": 40,
            "TANGENT": 42,
            "TEXCOORD_0": 43,
            "TEXCOORD_1": 44,
            "TEXCOORD_2": 45,
            "TEXCOORD_3": 46
          },
          "indices": 47,
          "material": 0,
          "mode": 4
        }
      ]
    },
    {
      "name": "Object_6",
      "primitives": [
        {
          "attributes": {
            "NORMAL": 49,
            "POSITION": 48,
            "TANGENT": 50,
            "TEXCOORD_0": 51,
            "TEXCOORD_1": 52,
            "TEXCOORD_2": 53,
            "TEXCOORD_3": 54
          },
          "indices": 55,
          "material": 0,
          "mode": 4
        }
      ]
    }
  ],
  "nodes": [
    {
      "children": [
        1
      ],
      "matrix": [
        1.0,
        0.0,
        0.0,
        0.0,
        0.0,
        2.220446049250313e-16,
        -1.0,
        0.0,
        0.0,
        1.0,
        2.220446049250313e-16,
        0.0,
        0.0,
        0.0,
        0.0,
        1.0
      ],
      "name": "Sketchfab_model"
    },
    {
      "children": [
        2
      ],
      "name": "root"
    },
    {
      "children": [
        3,
        5,
        7,
        9,
        11,
        13,
        15
      ],
      "matrix": [
        1.0,
        0.0,
        0.0,
        0.0,
        0.0,
        2.220446049250313e-16,
        1.0,
        0.0,
        0.0,
        -1.0,
        2.220446049250313e-16,
        0.0,
        0.0,
        0.0,
        0.0,
        1.0
      ],
      "name": "GLTF_SceneRootNode"
    },
    {
      "children": [
        4
      ],
      "matrix": [
        1.0,
        0.0,
        0.0,
        0.0,
        0.0,
        1.0,
        0.0,
        0.0,
        0.0,
        0.0,
        1.0,
        0.0,
        0.5134326815605164,
        0.2536218464374542,
        -0.0004563680849969387,
        1.0
      ],
      "name": "Cylinder_LP_0"
    },
    {
      "mesh": 0,
      "name": "Object_4"
    },
    {
      "children": [
        6
      ],
      "matrix": [
        1.0,
        0.0,
        0.0,
        0.0,
        0.0,
        1.0,
        0.0,
        0.0,
        0.0,
        0.0,
        1.0,
        0.0,
        0.05501231551170349,
        0.2536218464374542,
        -0.0004563331604003906,
        1.0
      ],
      "name": "CylinderHook_1"
    },
    {
      "mesh": 1,
      "name": "Object_6"
    },
    {
      "children": [
        8
      ],
      "matrix": [
        1.0,
        0.0,
        0.0,
        0.0,
        0.0,
        1.0,
        0.0,
        0.0,
        0.0,
        0.0,
        1.0,
        0.0,
        0.5134326815605164,
        0.2536218464374542,
        0.4579640030860901,
        1.0
      ],
      "name": "Hammer_LP_2"
    },
    {
      "mesh": 2,
      "name": "Object_8"
    },
    {
      "children": [
        10
      ],
      "matrix": [
        1.0,
        0.0,
        0.0,
        0.0,
        0.0,
        1.0,
        0.0,
        0.0,
        0.0,
        0.0,
        1.0,
        0.0,
        0.5134326815605164,
        0.2536218464374542,
        0.4579640030860901,
        1.0
      ],
      "name": "MainBody_LP_3"
    },
    {
      "mesh": 3,
      "name": "Object_10"
    },
    {
      "children": [
        12
      ],
      "matrix": [
        1.0,
        0.0,
        0.0,
        0.0,
        0.0,
        1.0,
        0.0,
        0.0,
        0.0,
        0.0,
        1.0,
        0.0,
        -0.8751596808433533,
        0.2554427683353424,
        -0.0004563680849969387,
        1.0
      ],
      "name": "Screw_LP_4"
    },
    {
      "mesh": 4,
      "name": "Object_12"
    },
    {
      "children": [
        14
      ],
      "matrix": [
        1.0,
        0.0,
        0.0,
        0.0,
        0.0,
        1.0,
        0.0,
        0.0,
        0.0,
        0.0,
        1.0,
        0.0,
        0.5134326815605164,
        0.2536218464374542,
        0.4579640030860901,
        1.0
      ],
      "name": "UnderBit_LP_5"
    },
    {
      "mesh": 5,
      "name": "Object_14"
    },
    {
      "children": [
        16
      ],
      "matrix": [
        1.0,
        0.0,
        0.0,
        0.0,
        0.0,
        1.0,
        0.0,
        0.0,
        0.0,
        0.0,
        1.0,
        0.0,
        0.5134326815605164,
        0.2536218464374542,
        0.4579640030860901,
        1.0
      ],
      "name": "UnderNub_LP_6"
    },
    {
      "mesh": 6,
      "name": "Object_16"
    }
  ],
  "samplers": [
    {
      "magFilter": 9729,
      "minFilter": 9987,
      "wrapS": 10497,
      "wrapT": 10497
    }
  ],
  "scene": 0,
  "scenes": [
    {
      "name": "Sketchfab_Scene",
      "nodes": [
        0
      ]
    }
  ],
  "textures": [
    {
      "sampler": 0,
      "source": 0
    },
    {
      "sampler": 0,
      "source": 1
    },
    {
      "sampler": 0,
      "source": 2
    }
  ]
}
